<svg width="169" height="188" viewBox="0 0 169 188" fill="none" xmlns="http://www.w3.org/2000/svg">
<path d="M9.60006 -5.59998H33.8001L19.9715 42.8H-4.22852L9.60006 -5.59998Z" fill="#F8F9FC"/>
<path d="M-18.0581 91.2H6.14185L-7.68672 139.6H-31.8867L-18.0581 91.2Z" fill="#F8F9FC"/>
<path d="M19.9712 42.7999H44.1712L30.3426 91.1999H6.14258L19.9712 42.7999Z" fill="#F8F9FC"/>
<path d="M58.0004 -5.59998H82.2004L68.3719 42.8H44.1719L58.0004 -5.59998Z" fill="#F8F9FC"/>
<path d="M68.3715 42.7999H92.5715L78.743 91.1999H54.543L68.3715 42.7999Z" fill="#F8F9FC"/>
<path d="M122.372 49.7999H146.572L132.743 98.1999H108.543L122.372 49.7999Z" fill="#F8F9FC"/>
<path d="M72.3715 109.8H96.5715L82.743 158.2H58.543L72.3715 109.8Z" fill="#F8F9FC"/>
<path d="M106.401 -5.59998H130.601L116.772 42.8H92.5723L106.401 -5.59998Z" fill="#F8F9FC"/>
<path d="M30.3422 91.2H54.5422L40.7137 139.6H16.5137L30.3422 91.2Z" fill="#F8F9FC"/>
<path d="M-7.6851 139.6H16.5149L2.68633 188H-21.5137L-7.6851 139.6Z" fill="#F8F9FC"/>
</svg>
